<?xml version="1.0" encoding="UTF-8" standalone="no"?>
<svg
   xmlns:dc="http://purl.org/dc/elements/1.1/"
   xmlns:cc="http://creativecommons.org/ns#"
   xmlns:rdf="http://www.w3.org/1999/02/22-rdf-syntax-ns#"
   xmlns:svg="http://www.w3.org/2000/svg"
   xmlns="http://www.w3.org/2000/svg"
   xmlns:sodipodi="http://sodipodi.sourceforge.net/DTD/sodipodi-0.dtd"
   xmlns:inkscape="http://www.inkscape.org/namespaces/inkscape"
   width="150.8125mm"
   height="87.312508mm"
   viewBox="0 0 150.8125 87.312508"
   version="1.1"
   id="svg17150"
   sodipodi:docname="pv_display.svg"
   inkscape:version="1.0.2-2 (e86c870879, 2021-01-15)">
  <defs
     id="defs17144" />
  <sodipodi:namedview
     id="base"
     pagecolor="#ffffff"
     bordercolor="#666666"
     borderopacity="1.0"
     inkscape:pageopacity="0.0"
     inkscape:pageshadow="2"
     inkscape:zoom="0.98994949"
     inkscape:cx="250.17878"
     inkscape:cy="145.33288"
     inkscape:document-units="mm"
     inkscape:current-layer="layer1"
     inkscape:document-rotation="0"
     showgrid="true"
     inkscape:window-width="1920"
     inkscape:window-height="1017"
     inkscape:window-x="-8"
     inkscape:window-y="-8"
     inkscape:window-maximized="1">
    <inkscape:grid
       type="xygrid"
       id="grid17727"
       enabled="false"
       originx="-29.104166"
       originy="-116.41666" />
  </sodipodi:namedview>
  <metadata
     id="metadata17147">
    <rdf:RDF>
      <cc:Work
         rdf:about="">
        <dc:format>image/svg+xml</dc:format>
        <dc:type
           rdf:resource="http://purl.org/dc/dcmitype/StillImage" />
        <dc:title />
      </cc:Work>
    </rdf:RDF>
  </metadata>
  <g
     inkscape:label="Ebene 1"
     inkscape:groupmode="layer"
     id="layer1"
     transform="translate(-29.104166,-116.41666)">
    <path
       id="rect17729"
       style="fill:#4ca36a;fill-opacity:1;stroke-width:3.04012;stroke-linecap:round;stop-color:#000000"
       d="M 0 0 L 0 330 L 570 330 L 570 0 L 0 0 z M 10 10 L 30 10 L 30 30 L 10 30 L 10 10 z M 540 10 L 560 10 L 560 30 L 540 30 L 540 10 z M 10 300 L 30 300 L 30 320 L 10 320 L 10 300 z M 540 300 L 560 300 L 560 320 L 540 320 L 540 300 z "
       transform="matrix(0.26458333,0,0,0.26458333,29.104166,116.41666)" />
    <rect
       style="fill:#000000;fill-opacity:1;stroke-width:1.01728;stroke-linecap:round;stop-color:#000000"
       id="rect17739"
       width="145.52084"
       height="60.854168"
       x="31.75"
       y="129.64583" />
    <rect
       style="fill:#000000;fill-opacity:0.402145;stroke-width:1.01728;stroke-linecap:round;stop-color:#000000"
       id="rect17741"
       width="145.52084"
       height="60.854172"
       x="31.75"
       y="132.29167" />
    <rect
       style="fill:#3e60a1;fill-opacity:1;stroke-width:0.648359;stroke-linecap:round;stop-color:#000000"
       id="rect17743"
       width="129.64583"
       height="50.270832"
       x="39.6875"
       y="134.9375" />
    <rect
       style="fill:#30497e;fill-opacity:1;stroke-width:0.661458;stroke-linecap:round;stop-color:#000000"
       id="rect17745"
       width="124.35416"
       height="44.979168"
       x="42.333332"
       y="137.58333" />
    <rect
       style="fill:#cfbd5b;fill-opacity:1;stroke-width:0.697647;stroke-linecap:round;stop-color:#000000"
       id="rect17747"
       width="2.79059"
       height="2.79059"
       x="41.010418"
       y="119.0625" />
    <rect
       style="fill:#cfbd5b;fill-opacity:1;stroke-width:0.697647;stroke-linecap:round;stop-color:#000000"
       id="rect17747-9"
       width="2.79059"
       height="2.79059"
       x="45.196304"
       y="119.0625" />
    <rect
       style="fill:#cfbd5b;fill-opacity:1;stroke-width:0.697647;stroke-linecap:round;stop-color:#000000"
       id="rect17769"
       width="2.79059"
       height="2.79059"
       x="49.382187"
       y="119.0625" />
    <rect
       style="fill:#cfbd5b;fill-opacity:1;stroke-width:0.697647;stroke-linecap:round;stop-color:#000000"
       id="rect17771"
       width="2.79059"
       height="2.79059"
       x="53.568073"
       y="119.0625" />
    <rect
       style="fill:#cfbd5b;fill-opacity:1;stroke-width:0.697647;stroke-linecap:round;stop-color:#000000"
       id="rect17773"
       width="2.79059"
       height="2.79059"
       x="57.75396"
       y="119.0625" />
    <rect
       style="fill:#cfbd5b;fill-opacity:1;stroke-width:0.697647;stroke-linecap:round;stop-color:#000000"
       id="rect17775"
       width="2.79059"
       height="2.79059"
       x="61.939846"
       y="119.0625" />
    <rect
       style="fill:#cfbd5b;fill-opacity:1;stroke-width:0.697647;stroke-linecap:round;stop-color:#000000"
       id="rect17777"
       width="2.79059"
       height="2.79059"
       x="66.125725"
       y="119.0625" />
    <rect
       style="fill:#cfbd5b;fill-opacity:1;stroke-width:0.697647;stroke-linecap:round;stop-color:#000000"
       id="rect17779"
       width="2.79059"
       height="2.79059"
       x="70.311607"
       y="119.0625" />
    <rect
       style="fill:#cfbd5b;fill-opacity:1;stroke-width:0.697647;stroke-linecap:round;stop-color:#000000"
       id="rect17781"
       width="2.79059"
       height="2.79059"
       x="74.497498"
       y="119.0625" />
    <rect
       style="fill:#cfbd5b;fill-opacity:1;stroke-width:0.697647;stroke-linecap:round;stop-color:#000000"
       id="rect17783"
       width="2.79059"
       height="2.79059"
       x="78.68338"
       y="119.0625" />
    <rect
       style="fill:#cfbd5b;fill-opacity:1;stroke-width:0.697647;stroke-linecap:round;stop-color:#000000"
       id="rect17785"
       width="2.79059"
       height="2.79059"
       x="82.86927"
       y="119.0625" />
    <rect
       style="fill:#cfbd5b;fill-opacity:1;stroke-width:0.697647;stroke-linecap:round;stop-color:#000000"
       id="rect17787"
       width="2.79059"
       height="2.79059"
       x="87.055153"
       y="119.0625" />
    <rect
       style="fill:#cfbd5b;fill-opacity:1;stroke-width:0.697647;stroke-linecap:round;stop-color:#000000"
       id="rect17789"
       width="2.79059"
       height="2.79059"
       x="91.241035"
       y="119.0625" />
    <rect
       style="fill:#cfbd5b;fill-opacity:1;stroke-width:0.697647;stroke-linecap:round;stop-color:#000000"
       id="rect17791"
       width="2.79059"
       height="2.79059"
       x="95.426926"
       y="119.0625" />
    <rect
       style="fill:#cfbd5b;fill-opacity:1;stroke-width:0.697647;stroke-linecap:round;stop-color:#000000"
       id="rect17793"
       width="2.79059"
       height="2.79059"
       x="99.612808"
       y="119.0625" />
    <rect
       style="fill:#cfbd5b;fill-opacity:1;stroke-width:0.697647;stroke-linecap:round;stop-color:#000000"
       id="rect17795"
       width="2.79059"
       height="2.79059"
       x="103.79868"
       y="119.0625" />
    <g
       id="g18119"
       transform="translate(0,37.70312)" />
    <g
       id="g18125"
       transform="translate(0,37.70312)" />
    <g
       id="g18131"
       transform="translate(0,37.70312)" />
    <g
       id="g18139"
       transform="translate(0,37.70312)">
      <g
         id="g18137" />
    </g>
    <g
       id="g18145"
       transform="translate(0,37.70312)" />
    <g
       id="g18151"
       transform="translate(0,37.70312)" />
    <g
       id="g18157"
       transform="translate(0,37.70312)" />
    <g
       inkscape:label="Ebene 1"
       id="layer1-9"
       transform="matrix(0.14628083,0,0,0.14628083,89.976774,131.76409)"
       style="fill:#ffffff;fill-opacity:1">
      <g
         id="g910"
         transform="matrix(0.26458333,0,0,0.26458333,-867.81482,67.84673)"
         style="display:inline;fill:#ffffff;fill-opacity:1">
        <path
           id="path906"
           style="fill:#ffffff;fill-opacity:1;stroke-width:0"
           d="m 2322.4453,0 v 25 h -25 -25 -25 -25 v 25 h -25 -25 -25 v 25 h -25 v 25 25 h 25 25 25 v -25 h 25 25 25 V 75 h 25 25 25 25 25 V 50 h 25 25 25 25 25 25 25 25 25 25 25 25 25 25 25 v 25 h 25 25 25 25 25 v 25 h 25 25 25 v 25 h 25 25 25 V 100 75 h -25 V 50 h -25 -25 -25 V 25 h -25 -25 -25 -25 V 0 h -25 -25 -25 -25 -25 -25 -25 -25 -25 -25 -25 -25 -25 -25 -25 -25 -25 -25 -25 -25 z" />
        <path
           id="path908"
           style="fill:#ffffff;fill-opacity:1;stroke-width:0"
           d="m 2422.4453,75 v 25 h -125 v 25 h -100 v 25 h -50 v 50 h 25 v 25 h 25 v 25 h 50 v 25 h 25 v -50 h 50 v -25 h 125 v 100 h 25 v 150 h 25 v 150 h 25 v 125 h 25 v 150 h 25 v 75 h 25 v -75 h 25 V 725 h 25 V 600 h 25 V 450 h 25 V 300 h 25 V 200 h 125 v 25 h 50 v 50 h 25 v -25 h 50 v -25 h 25 v -25 h 25 v -50 h -50 v -25 h -100 v -25 h -125 V 75 h -75 v 25 h -25 v 50 h -25 v 25 h -25 v 25 h -25 v -25 h -25 v -25 h -25 v -50 h -25 V 75 Z"
           sodipodi:nodetypes="ccccccccccccccccccccccccccccccccccccccccccccccccccccccccccccccccccccccccccccc" />
      </g>
      <path
         d="m -96.782224,189.69253 v 21.66277 h 21.66277 v -21.66277 z m 0,89.23635 H -119.69305 V 166.7817 h 56.341026 v 11.1434 h 11.1434 v 45.19763 h -11.1434 v 11.1434 h -33.4302 z m 33.4302,-112.14718 h 11.1434 v 11.1434 h -11.1434 z m 0,56.34103 h 11.1434 v 10.87596 h -11.1434 z"
         style="font-size:89.1472px;line-height:1.25;font-family:'FFF Forward';-inkscape-font-specification:'FFF Forward';fill:#ffffff;fill-opacity:1;stroke-width:2.22868"
         id="path912" />
      <path
         d="M -41.689424,278.92888 V 166.7817 h 22.91083 v 89.1472 h 10.51937 v -11.1434 h 11.1434 v -78.0038 h 22.91083 v 89.77123 h -11.1434 v 11.1434 h -11.1434 v 11.23255 z"
         style="font-size:89.1472px;line-height:1.25;font-family:'FFF Forward';-inkscape-font-specification:'FFF Forward';fill:#ffffff;fill-opacity:1;stroke-width:2.22868"
         id="path914" />
      <path
         d="M 92.655237,245.85527 H 36.314206 v -22.91083 h 56.341031 z"
         style="font-size:89.1472px;line-height:1.25;font-family:'FFF Forward';-inkscape-font-specification:'FFF Forward';fill:#ffffff;fill-opacity:1;stroke-width:2.22868"
         id="path916" />
      <path
         d="m 126.08527,255.9289 h 21.66277 v -66.23637 h -21.66277 z m -22.91083,22.99998 V 166.7817 h 56.34103 v 11.1434 h 11.1434 v 89.77123 h -11.1434 v 11.23255 z"
         style="font-size:89.1472px;line-height:1.25;font-family:'FFF Forward';-inkscape-font-specification:'FFF Forward';fill:#ffffff;fill-opacity:1;stroke-width:2.22868"
         id="path918" />
      <path
         style="font-size:89.1472px;line-height:1.25;font-family:'FFF Forward';-inkscape-font-specification:'FFF Forward';fill:#ffffff;fill-opacity:1;stroke-width:2.22868"
         d="M 204.0889,278.92888 H 181.17807 V 200.2119 h 22.91083 z"
         id="path920" />
      <path
         style="font-size:89.1472px;line-height:1.25;font-family:'FFF Forward';-inkscape-font-specification:'FFF Forward';fill:#ffffff;fill-opacity:1;stroke-width:2.22868"
         d="M 204.0889,189.69253 H 181.17807 V 166.7817 h 22.91083 z"
         id="path922" />
      <path
         style="font-size:89.1472px;line-height:1.25;font-family:'FFF Forward';-inkscape-font-specification:'FFF Forward';fill:#ffffff;fill-opacity:1;stroke-width:2.22868"
         d="M 263.01295,278.92888 H 217.81532 V 255.9289 h 33.4302 v -10.51937 h -22.2868 v -11.1434 h -11.1434 V 211.3553 h 11.1434 v -11.1434 h 45.19763 v 22.91083 h -33.4302 v 10.51937 h 22.2868 v 11.1434 h 11.1434 v 22.91083 h -11.1434 z"
         id="path924" />
      <path
         id="path926"
         style="font-size:89.1472px;line-height:1.25;font-family:'FFF Forward';-inkscape-font-specification:'FFF Forward';fill:#ffffff;fill-opacity:1;stroke-width:2.22868"
         d="m 281.46854,200.21174 v 112.14715 h 22.91075 V 278.9289 h 22.28648 v -11.23239 h 11.14351 v -56.34127 h -11.14351 v -11.1435 z m 22.91075,22.91074 h 10.51925 v 32.80627 h -10.51925 z" />
      <path
         d="M 371.23938,278.92888 H 348.32855 V 166.7817 h 22.91083 z"
         style="font-size:89.1472px;line-height:1.25;font-family:'FFF Forward';-inkscape-font-specification:'FFF Forward';fill:#ffffff;fill-opacity:1;stroke-width:2.22868"
         id="path928" />
      <path
         d="m 404.66944,245.40953 v 10.51937 h 10.51937 v -10.51937 z m -22.91083,33.51935 V 233.6421 h 33.4302 v -10.51937 h -33.4302 V 200.2119 h 56.34103 v 78.71698 z"
         style="font-size:89.1472px;line-height:1.25;font-family:'FFF Forward';-inkscape-font-specification:'FFF Forward';fill:#ffffff;fill-opacity:1;stroke-width:2.22868"
         id="path930" />
      <path
         style="font-size:89.1472px;line-height:1.25;font-family:'FFF Forward';-inkscape-font-specification:'FFF Forward';fill:#ffffff;fill-opacity:1;stroke-width:2.22868"
         d="m 493.81647,312.35908 h -34.05423 v -22.91083 h 22.2868 v -10.51937 h -22.2868 v -11.23255 h -11.1434 V 200.2119 h 22.91083 v 55.717 h 10.51937 v -55.717 h 22.91083 v 101.00378 h -11.1434 z"
         id="path932" />
    </g>
  </g>
</svg>
